# xmcd
#
# Track frame offsets:
#	150
#	18370
#	34478
#	51486
#	68065
#	90370
#	109380
#	126599
#	144942
#	157786
#	171542
#	186268
#	199811
#
# Disc length: 2858 seconds
#
# Revision: 1
# Processed by: cddbd v1.5.2PL0 Copyright (c) Steve Scherf et al.
# Submitted via: audiograbber 1.83.01
#
DISCID=bc0b280d
DTITLE=Various Artist - CDX 446
DYEAR=2008
DGENRE=Country
TTITLE0=David Nail - I'm ABout To Come Alive
TTITLE1=John Michael Montgomery - Mad Cowboy Disease
TTITLE2=Jason Aldean - Restless
TTITLE3=Mark Chesnutt - When You Love Her Like Crazy
TTITLE4=George Jones and Georgette Jones - You And Me And Time
TTITLE5=James Leblanc - I'm Here
TTITLE6=Ryan Caspar - American Way
TTITLE7=Shawna Russell - Goddess
TTITLE8=Connie Kis Andersen - Happy Day
TTITLE9=John Tigert - Hoe-Down
TTITLE10=Native Mind - I Will Live For You
TTITLE11=Duane Michaels - Ladies Choice
TTITLE12=Kyle Jennings - Long Black Cadillac
EXTD=
EXTT0=
EXTT1=
EXTT2=
EXTT3=
EXTT4=
EXTT5=
EXTT6=
EXTT7=
EXTT8=
EXTT9=
EXTT10=
EXTT11=
EXTT12=
PLAYORDER=
